<?xml version="1.0" standalone="no"?>
<!DOCTYPE svg PUBLIC "-//W3C//DTD SVG 20010904//EN"
 "http://www.w3.org/TR/2001/REC-SVG-20010904/DTD/svg10.dtd">
<svg version="1.0" xmlns="http://www.w3.org/2000/svg"
 width="736.000000pt" height="736.000000pt" viewBox="0 0 736.000000 736.000000"
 preserveAspectRatio="xMidYMid meet">
<metadata>
Created by potrace 1.14, written by Peter Selinger 2001-2017
</metadata>
<g transform="translate(0.000000,736.000000) scale(0.100000,-0.100000)"
fill="#000000" stroke="none">
<path d="M0 3680 l0 -3680 725 0 725 0 0 88 c1 79 11 139 39 230 13 42 53 111
102 177 51 69 353 367 414 409 171 117 476 304 546 334 24 11 101 47 170 81
69 33 128 61 131 61 3 0 10 -39 17 -87 7 -49 15 -97 17 -108 3 -11 9 -49 15
-85 19 -133 29 -179 62 -280 71 -216 154 -337 397 -580 211 -212 251 -243 304
-238 l36 3 -67 49 c-134 98 -215 172 -273 251 -33 44 -80 105 -105 135 -24 30
-56 72 -71 93 -38 57 -124 233 -124 255 0 10 -4 22 -9 28 -25 27 -106 348
-102 407 2 22 2 71 0 124 -2 44 20 86 84 162 16 18 36 50 45 70 9 20 17 38 19
39 3 6 206 -60 221 -71 6 -5 12 -20 12 -33 0 -78 73 -281 142 -395 15 -25 28
-57 28 -71 0 -19 13 -34 53 -61 29 -20 66 -49 82 -65 17 -15 50 -43 75 -62 25
-19 47 -38 48 -42 2 -5 8 -8 14 -8 5 0 29 -13 53 -30 24 -16 46 -30 50 -30 3
0 34 -13 68 -28 83 -38 185 -68 281 -82 83 -12 246 -15 283 -4 17 5 27 -2 49
-38 15 -23 37 -53 48 -65 11 -13 16 -26 13 -29 -10 -10 -111 -43 -116 -38 -2
2 6 15 19 29 27 29 21 55 -14 55 -28 0 -87 -57 -114 -110 -10 -19 -26 -51 -37
-70 -41 -76 -105 -280 -105 -335 0 -32 2 -35 29 -35 25 0 30 5 36 32 4 18 11
38 16 44 5 6 24 58 42 114 47 150 57 143 57 -39 l0 -151 26 0 26 0 -6 148 c-3
81 -7 165 -8 187 l-3 40 78 22 c43 12 106 27 140 32 34 5 84 15 111 21 47 12
49 12 73 -16 66 -80 84 -124 64 -162 -5 -9 -11 -74 -13 -145 l-5 -127 29 0 28
0 0 115 c0 91 3 115 14 115 20 0 59 -98 81 -202 5 -26 9 -28 50 -28 25 0 45 3
45 8 0 4 -9 22 -20 40 -12 19 -28 55 -37 80 -25 76 -63 152 -124 253 -33 54
-59 101 -59 105 -1 5 -11 21 -23 36 -16 20 -28 26 -45 22 -12 -4 -22 -13 -22
-20 0 -10 -13 -14 -44 -14 -44 0 -66 12 -46 25 5 3 10 18 10 33 0 15 4 32 8
37 4 6 51 32 104 59 104 52 135 78 153 129 7 17 24 64 38 102 17 49 28 108 36
195 9 112 15 141 41 215 9 24 31 111 37 145 2 14 8 34 13 45 5 11 11 40 14 63
11 73 32 114 58 110 17 -2 24 -12 29 -38 3 -19 14 -55 23 -80 10 -25 27 -72
38 -105 12 -33 30 -73 42 -90 20 -28 21 -45 24 -280 3 -252 -5 -388 -33 -570
-8 -55 -18 -122 -22 -150 -3 -27 -11 -57 -18 -65 -7 -8 -28 -77 -48 -153 l-35
-137 38 0 c21 0 42 5 45 11 9 14 41 162 71 334 31 171 41 246 54 395 5 63 15
155 21 203 14 101 6 300 -15 419 -11 61 -24 92 -55 139 -23 34 -44 73 -48 88
-3 14 -15 41 -25 60 -39 69 8 85 50 17 16 -27 43 -52 67 -65 22 -11 63 -34 90
-50 99 -60 237 -122 283 -127 79 -10 305 -143 400 -235 100 -97 168 -214 200
-344 22 -88 44 -235 67 -435 9 -77 33 -209 44 -245 5 -16 23 -60 41 -97 l32
-68 374 0 374 0 0 3680 0 3680 -3680 0 -3680 0 0 -3680z m4480 2020 c0 -5 15
-27 33 -47 89 -101 218 -342 232 -434 9 -64 18 -75 47 -62 16 7 28 7 40 -1 25
-15 44 7 65 74 10 30 23 55 28 55 6 0 19 -27 30 -60 l20 -60 70 -6 c150 -14
238 -33 334 -73 77 -31 91 -32 124 -6 22 18 27 30 29 80 2 33 8 61 13 62 6 1
28 -34 50 -78 30 -60 52 -89 89 -118 53 -42 214 -126 240 -126 23 0 49 -46 57
-99 4 -25 14 -73 24 -106 9 -33 25 -91 36 -130 38 -135 52 -180 74 -245 13
-36 36 -105 53 -155 16 -49 39 -115 51 -145 31 -78 75 -245 100 -380 12 -63
28 -140 34 -170 7 -34 12 -143 12 -280 0 -245 -10 -318 -64 -475 -45 -129 -73
-179 -166 -295 -112 -139 -344 -339 -562 -483 -148 -98 -236 -143 -348 -181
-172 -58 -286 -108 -283 -125 4 -18 74 -21 142 -7 36 8 39 7 32 -10 -5 -10
-16 -50 -26 -89 -42 -161 -59 -223 -78 -285 -46 -151 -72 -269 -76 -352 -1
-26 -9 -55 -18 -65 -8 -10 -26 -30 -38 -46 -13 -15 -27 -27 -31 -27 -20 0
-179 -112 -179 -125 0 -26 -24 -15 -55 24 -33 43 -40 45 -215 56 -151 11 -177
14 -252 31 -131 30 -244 79 -375 163 -55 35 -76 56 -90 86 -10 22 -34 65 -53
95 -147 230 -164 273 -153 368 l8 66 200 0 c167 1 205 4 230 18 l30 16 -25 6
c-14 2 -90 10 -170 16 -335 24 -566 87 -820 222 -139 73 -319 197 -349 240
-14 20 -39 44 -54 53 -54 32 -228 208 -264 267 -36 58 -65 74 -77 42 -3 -8 -2
-23 4 -33 24 -46 9 -241 -22 -278 -27 -33 -101 -74 -160 -89 -183 -47 -415 40
-591 221 -154 158 -220 285 -269 523 -18 90 -22 138 -22 302 1 169 4 205 23
274 29 106 65 180 104 212 31 26 33 27 137 20 209 -14 302 -50 430 -171 101
-95 151 -125 174 -106 24 20 20 36 -34 137 -94 175 -128 249 -163 360 -19 60
-46 133 -60 160 -14 28 -22 55 -19 60 4 6 34 24 67 39 33 16 63 33 67 39 7 11
-1 34 -47 130 -52 109 -60 95 80 130 148 36 155 41 155 112 0 49 -24 225 -36
265 -3 11 44 48 168 131 95 64 192 125 216 137 54 27 55 51 7 138 -34 60 -32
83 4 48 51 -49 172 -135 190 -135 28 0 50 38 58 99 3 28 8 51 12 51 3 0 33
-30 67 -66 72 -76 61 -75 249 -19 162 50 396 95 487 95 73 0 103 12 122 48 19
37 15 83 -16 160 -14 34 -22 64 -18 67 4 2 34 -21 68 -53 33 -31 93 -88 133
-125 l72 -69 399 8 c352 6 400 9 407 23 6 11 3 24 -10 40 -10 13 -19 29 -19
36 0 13 -54 159 -92 250 -48 114 -57 145 -42 145 8 0 14 -4 14 -10z m1997
-2007 c19 -27 31 -62 53 -148 5 -22 10 -114 10 -205 0 -177 -17 -300 -65 -476
-37 -134 -52 -167 -132 -273 -2 -2 -6 -2 -9 2 -3 3 1 20 9 39 27 59 55 161 73
263 30 175 20 529 -22 733 -8 40 -12 77 -9 82 3 6 21 10 40 10 25 0 38 -7 52
-27z"/>
<path d="M3135 5005 c-90 -13 -163 -28 -220 -45 -189 -57 -237 -75 -310 -119
-83 -49 -120 -77 -150 -110 -16 -19 -36 -40 -42 -47 -7 -7 -13 -17 -13 -22 0
-4 -11 -19 -25 -32 -14 -13 -25 -33 -25 -44 0 -29 34 -146 56 -192 21 -44 110
-141 120 -131 4 4 -10 34 -30 67 -41 67 -81 171 -91 241 l-7 47 87 62 c127 89
243 145 405 193 286 85 644 102 819 37 65 -24 85 -67 101 -212 23 -212 -29
-381 -149 -490 -98 -89 -198 -125 -406 -149 -193 -21 -415 14 -570 90 -44 22
-81 38 -84 36 -9 -10 71 -69 134 -100 123 -61 176 -70 400 -70 164 0 212 3
270 19 129 35 192 71 290 170 132 133 169 217 170 386 0 103 -20 246 -37 256
-4 3 -8 13 -8 23 0 43 -101 101 -228 130 -109 25 -306 27 -457 6z"/>
<path d="M5006 5009 c-43 -10 -66 -25 -66 -43 0 -8 60 -11 207 -11 135 0 229
-5 268 -13 123 -27 233 -65 330 -114 55 -28 110 -56 122 -62 48 -24 79 -170
71 -338 -4 -81 -11 -117 -32 -171 -15 -37 -26 -72 -24 -77 6 -20 44 19 71 72
34 68 47 137 47 254 0 139 -27 206 -116 290 -38 35 -74 64 -80 64 -6 0 -17 7
-25 16 -14 17 -119 67 -189 90 -25 8 -54 19 -65 23 -65 28 -427 42 -519 20z"/>
<path d="M4420 4991 c-24 -46 1 -154 67 -291 69 -143 148 -249 226 -302 76
-53 78 -23 4 65 -82 97 -102 126 -146 213 -45 88 -91 222 -91 267 0 36 -16 67
-35 67 -8 0 -19 -9 -25 -19z"/>
<path d="M4871 4892 c-24 -46 -10 -205 29 -318 47 -138 100 -225 195 -320 166
-169 254 -209 460 -208 97 0 129 4 170 21 82 34 72 47 -31 37 -249 -24 -397
17 -534 149 -132 127 -229 341 -250 551 -9 95 -21 121 -39 88z"/>
<path d="M3181 4741 c-42 -42 -19 -148 43 -196 46 -35 80 -40 131 -20 37 14
46 23 54 52 16 56 -8 102 -74 142 -71 43 -125 51 -154 22z"/>
<path d="M5312 4734 c-28 -19 -30 -84 -3 -134 54 -103 197 -137 216 -51 18 85
-149 230 -213 185z"/>
<path d="M4785 4248 c-12 -31 -10 -141 3 -145 25 -9 53 97 36 141 -7 19 -33
21 -39 4z"/>
<path d="M4750 3854 c-154 -16 -344 -60 -410 -97 -19 -10 -52 -28 -72 -40 -48
-26 -54 -63 -9 -54 29 6 31 3 75 -86 105 -215 244 -310 476 -324 167 -10 298
21 399 95 63 46 90 88 98 153 7 50 -36 162 -82 213 -19 22 -37 48 -40 58 -10
30 -179 75 -300 81 -55 2 -116 3 -135 1z m358 -101 c39 -14 72 -29 72 -34 0
-5 11 -32 23 -61 67 -150 69 -182 17 -240 -49 -54 -275 -102 -425 -91 -118 9
-247 70 -323 152 -62 67 -132 178 -132 208 0 7 8 16 18 22 42 22 273 71 336
71 35 0 45 -6 100 -67 33 -36 74 -84 91 -105 38 -50 55 -49 55 2 0 50 -17 84
-64 129 -20 19 -36 39 -36 44 0 19 192 -3 268 -30z"/>
<path d="M1393 3289 c-45 -9 -94 -48 -121 -98 -13 -22 -21 -41 -18 -41 3 0 28
20 56 45 92 82 123 76 242 -48 48 -50 85 -94 80 -97 -4 -3 -40 -17 -80 -30
-84 -28 -101 -42 -81 -66 16 -20 75 -14 162 17 l59 21 34 -33 c19 -18 34 -39
34 -46 0 -11 -4 -14 -25 -13 -10 1 -60 -28 -82 -47 -12 -10 -31 -26 -42 -35
-28 -24 -26 -46 4 -54 19 -5 35 3 69 31 25 20 51 35 57 33 13 -4 47 -107 56
-165 l5 -33 -57 1 c-37 1 -61 -3 -70 -12 -20 -22 -56 -89 -51 -98 3 -4 0 -13
-5 -21 -8 -12 -14 -10 -34 15 -14 17 -25 34 -25 38 0 5 -9 20 -20 34 -11 14
-20 32 -20 39 0 7 -13 41 -29 76 -65 143 -79 249 -51 385 18 83 -7 86 -42 5
-71 -160 10 -533 142 -654 35 -32 98 -38 124 -13 16 16 36 76 36 107 0 26 37
41 82 34 52 -8 106 -44 190 -124 79 -76 88 -82 88 -54 0 10 -27 51 -60 90 -87
104 -160 256 -160 335 0 35 7 34 50 -7 37 -36 80 -55 80 -36 0 6 -11 32 -24
58 -27 53 -348 390 -408 428 -46 29 -103 42 -145 33z"/>
<path d="M2382 491 c2 -5 60 -68 130 -139 132 -136 184 -198 246 -294 32 -51
41 -58 70 -58 37 0 38 2 15 38 -89 139 -283 347 -392 420 -66 44 -75 48 -69
33z"/>
<path d="M5950 333 c0 -107 -22 -260 -45 -315 -6 -15 -1 -18 33 -18 l39 0 17
83 c21 105 20 246 -2 311 -30 88 -42 71 -42 -61z"/>
<path d="M4664 307 c-70 -41 -114 -115 -114 -191 0 -39 32 -66 77 -66 70 1
172 76 212 156 22 43 23 50 10 72 -17 30 -45 49 -56 38 -4 -4 2 -15 15 -23 30
-21 28 -40 -12 -94 -40 -55 -116 -102 -165 -103 -34 -1 -36 1 -39 32 -4 41 24
88 83 140 41 36 48 53 21 52 -6 -1 -20 -6 -32 -13z"/>
<path d="M5676 88 c-3 -7 -7 -30 -10 -51 -4 -34 -3 -37 21 -37 19 0 24 4 19
16 -3 9 -6 31 -6 50 0 33 -17 47 -24 22z"/>
</g>
</svg>
